:FULLY-SPECIFIED
:FORCE-ALL-JOINTS-BE-3DOF
:DEGREES
33
root 8.11033 15.7404 -31.9774 7.53928 -6.66223 -5.85159
lfemur -43.1263 8.43001 -13.6878
ltibia 37.5533 -0 0
lfoot -2.52616 7.34813 -0.0296448
ltoes -5.58486 0 0
rfemur 16.5231 5.64179 28.0319
rtibia 5.29459 -0 0
rfoot -1.96245 0.746108 -0.00359372
rtoes -22.3614 0 0
lowerback -7.71876 0.995417 2.21954
upperback -1.28462 1.00594 3.7161
thorax 2.97164 0.509275 2.72146
lowerneck -20.6306 -4.79739 -12.6745
upperneck 15.3695 -5.91427 15.1894
head 9.09494 -1.97755 6.58658
lclavicle -3.14018e-14 -4.8901e-14 0
lhumerus -42.3536 -6.18868 90.5458
lradius 24.0944 -0 0
lwrist 1.43105 0 0
lhand 2.3183 -18.6406 0.16801
lfingers 7.12502 -0 0
lthumb 27.7857 9.08571 0.0926862
rclavicle -3.14018e-14 -4.8901e-14 0
rhumerus -44.2213 19.4101 -91.6875
rradius 56.1242 -0 0
rwrist -27.1976 0 0
rhand -31.3648 -32.6134 -0.030937
rfingers 7.12502 -0 0
rthumb -4.63536 -62.5405 -0.0300615
34
root 8.13047 15.7325 -31.8289 7.55761 -6.91122 -5.92126
lfemur -43.2011 8.49453 -13.6058
ltibia 37.3546 -0 0
lfoot -2.14827 7.31695 -0.027172
ltoes -5.38912 0 0
rfemur 17.3489 5.6852 27.975
rtibia 4.7063 -0 0
rfoot -2.02377 0.769423 -0.00329423
rtoes -23.0602 0 0
lowerback -7.82534 1.02183 2.25876
upperback -1.27703 1.03151 3.75238
thorax 3.03816 0.52182 2.7409
lowerneck -20.6921 -4.78525 -12.654
upperneck 15.422 -5.89105 15.1356
head 9.11691 -1.96793 6.5684
lclavicle -3.14018e-14 -4.8901e-14 0
lhumerus -42.5588 -6.28109 90.686
lradius 23.9909 -0 0
lwrist 1.24747 0 0
lhand 2.80632 -18.5039 0.153985
lfingers 7.12502 -0 0
lthumb 28.2538 9.16434 0.0849507
rclavicle -3.14018e-14 -4.8901e-14 0
rhumerus -44.3968 19.46 -91.9289
rradius 56.1219 -0 0
rwrist -27.1547 0 0
rhand -31.3074 -32.8278 -0.028358
rfingers 7.12502 -0 0
rthumb -4.57995 -62.7563 -0.0275555
35
root 8.15061 15.7246 -31.6803 7.57625 -7.16019 -5.99106
lfemur -43.2758 8.55916 -13.5238
ltibia 37.156 -0 0
lfoot -1.77039 7.28579 -0.0244936
ltoes -5.19337 0 0
rfemur 18.1748 5.72943 27.9188
rtibia 4.11801 -0 0
rfoot -2.0851 0.792738 -0.00296979
rtoes -23.759 0 0
lowerback -7.93191 1.04831 2.29794
upperback -1.26943 1.05707 3.78866
thorax 3.1047 0.534342 2.76036
lowerneck -20.7537 -4.77309 -12.6335
upperneck 15.4743 -5.86779 15.0818
head 9.13889 -1.95829 6.55022
lclavicle -3.14018e-14 -4.8901e-14 0
lhumerus -42.7642 -6.373 90.8265
lradius 23.8874 -0 0
lwrist 1.06389 0 0
lhand 3.29431 -18.3673 0.138796
lfingers 7.12502 -0 0
lthumb 28.722 9.2429 0.0765729
rclavicle -3.14018e-14 -4.8901e-14 0
rhumerus -44.5726 19.5092 -92.1705
rradius 56.1195 -0 0
rwrist -27.1118 0 0
rhand -31.25 -33.0423 -0.0255644
rfingers 7.12502 -0 0
rthumb -4.52456 -62.9721 -0.0248409
36
root 8.17074 15.7167 -31.5317 7.59521 -7.40913 -6.06098
lfemur -43.3504 8.62389 -13.4419
ltibia 36.9573 -0 0
lfoot -1.3925 7.25465 -0.0216098
ltoes -4.99763 0 0
rfemur 19.0006 5.77446 27.8631
rtibia 3.52973 -0 0
rfoot -2.14643 0.816053 -0.0026204
rtoes -24.4577 0 0
lowerback -8.03845 1.07487 2.33706
upperback -1.26181 1.08263 3.82495
thorax 3.17123 0.546841 2.77984
lowerneck -20.8152 -4.7609 -12.6131
upperneck 15.5267 -5.84447 15.0281
head 9.16086 -1.94865 6.53205
lclavicle -3.14018e-14 -4.8901e-14 0
lhumerus -42.9699 -6.46441 90.9674
lradius 23.784 -0 0
lwrist 0.880311 0 0
lhand 3.78227 -18.2309 0.122445
lfingers 7.12502 -0 0
lthumb 29.1901 9.3214 0.0675535
rclavicle -3.14018e-14 -4.8901e-14 0
rhumerus -44.7486 19.5577 -92.4123
rradius 56.1172 -0 0
rwrist -27.069 0 0
rhand -31.1927 -33.2567 -0.022556
rfingers 7.12502 -0 0
rthumb -4.46918 -63.1879 -0.0219177
37
root 8.19088 15.7088 -31.3831 7.61449 -7.65805 -6.13102
lfemur -43.425 8.68873 -13.36
ltibia 36.7586 -0 0
lfoot -1.01462 7.22352 -0.0185207
ltoes -4.80188 0 0
rfemur 19.8265 5.82028 27.8082
rtibia 2.94144 -0 0
rfoot -2.20775 0.839367 -0.00224605
rtoes -25.1565 0 0
lowerback -8.14498 1.10149 2.37613
upperback -1.25417 1.10819 3.86124
thorax 3.23777 0.559318 2.79933
lowerneck -20.8768 -4.7487 -12.5926
upperneck 15.5791 -5.82111 14.9743
head 9.18283 -1.939 6.51389
lclavicle -3.14018e-14 -4.8901e-14 0
lhumerus -43.1759 -6.55532 91.1086
lradius 23.6805 -0 0
lwrist 0.696732 0 0
lhand 4.27018 -18.0946 0.104932
lfingers 7.12502 -0 0
lthumb 29.6583 9.39982 0.0578931
rclavicle -3.14018e-14 -4.8901e-14 0
rhumerus -44.925 19.6055 -92.6543
rradius 56.1149 -0 0
rwrist -27.0261 0 0
rhand -31.1353 -33.4711 -0.019333
rfingers 7.12502 -0 0
rthumb -4.41381 -63.4037 -0.0187859
38
root 8.21102 15.7009 -31.2345 7.63408 -7.90695 -6.20118
lfemur -43.4995 8.75367 -13.2783
ltibia 36.56 -0 0
lfoot -0.636741 7.19242 -0.0152263
ltoes -4.60614 0 0
rfemur 20.6524 5.86688 27.7539
rtibia 2.35315 -0 0
rfoot -2.26908 0.862681 -0.00184674
rtoes -25.8553 0 0
lowerback -8.25149 1.12819 2.41516
upperback -1.24652 1.13374 3.89754
thorax 3.30432 0.571772 2.81883
lowerneck -20.9383 -4.73647 -12.5722
upperneck 15.6314 -5.7977 14.9206
head 9.2048 -1.92935 6.49572
lclavicle -3.14018e-14 -4.8901e-14 0
lhumerus -43.3822 -6.64572 91.2502
lradius 23.577 -0 0
lwrist 0.513153 0 0
lhand 4.75805 -17.9584 0.0862595
lfingers 7.12502 -0 0
lthumb 30.1264 9.47815 0.0475922
rclavicle -3.14018e-14 -4.8901e-14 0
rhumerus -45.1016 19.6526 -92.8966
rradius 56.1125 -0 0
rwrist -26.9832 0 0
rhand -31.078 -33.6855 -0.0158954
rfingers 7.12502 -0 0
rthumb -4.35845 -63.6195 -0.0154455
39
root 8.23116 15.6929 -31.0859 7.654 -8.15582 -6.27148
lfemur -43.5739 8.81872 -13.1966
ltibia 36.3613 -0 0
lfoot -0.258862 7.16134 -0.0117269
ltoes -4.41039 0 0
rfemur 21.4783 5.91426 27.7002
rtibia 1.76486 -0 0
rfoot -2.3304 0.885995 -0.00142249
rtoes -26.5541 0 0
lowerback -8.35799 1.15497 2.45413
upperback -1.23885 1.15929 3.93383
thorax 3.37087 0.584204 2.83835
lowerneck -20.9998 -4.72423 -12.5517
upperneck 15.6837 -5.77424 14.8669
head 9.22676 -1.91969 6.47756
lclavicle -3.14018e-14 -4.8901e-14 0
lhumerus -43.5887 -6.73561 91.3922
lradius 23.4735 -0 0
lwrist 0.329574 0 0
lhand 5.24587 -17.8225 0.0664284
lfingers 7.12502 -0 0
lthumb 30.5945 9.5564 0.0366517
rclavicle -3.14018e-14 -4.8901e-14 0
rhumerus -45.2784 19.699 -93.1391
rradius 56.1102 -0 0
rwrist -26.9403 0 0
rhand -31.0207 -33.9 -0.0122432
rfingers 7.12502 -0 0
rthumb -4.30311 -63.8353 -0.0118967
40
root 8.25129 15.685 -30.9374 7.67424 -8.40467 -6.34191
lfemur -43.6482 8.88387 -13.1149
ltibia 36.1626 -0 0
lfoot 0.119014 7.13029 -0.00802264
ltoes -4.21465 0 0
rfemur 22.3042 5.9624 27.6473
rtibia 1.17658 -0 0
rfoot -2.39173 0.909308 -0.000973276
rtoes -27.2529 0 0
lowerback -8.46447 1.18181 2.49306
upperback -1.23116 1.18483 3.97014
thorax 3.43742 0.596612 2.85788
lowerneck -21.0614 -4.71196 -12.5313
upperneck 15.7359 -5.75073 14.8133
head 9.24872 -1.91002 6.45941
lclavicle -3.14018e-14 -4.8901e-14 0
lhumerus -43.7955 -6.825 91.5345
lradius 23.3701 -0 0
lwrist 0.145996 0 0
lhand 5.73365 -17.6866 0.0454403
lfingers 7.12502 -0 0
lthumb 31.0626 9.63456 0.0250723
rclavicle -3.14018e-14 -4.8901e-14 0
rhumerus -45.4555 19.7447 -93.3818
rradius 56.1079 -0 0
rwrist -26.8975 0 0
rhand -30.9634 -34.1144 -0.00837656
rfingers 7.12502 -0 0
rthumb -4.24778 -64.0511 -0.00813949
41
root 8.27143 15.6771 -30.7888 7.6948 -8.65349 -6.41247
lfemur -43.7224 8.94913 -13.0334
ltibia 35.964 -0 0
lfoot 0.496889 7.09925 -0.0041136
ltoes -4.0189 0 0
rfemur 23.1302 6.0113 27.595
rtibia 0.588288 -0 0
rfoot -2.45305 0.93262 -0.000499114
rtoes -27.9517 0 0
lowerback -8.57093 1.20873 2.53193
upperback -1.22346 1.21037 4.00644
thorax 3.50398 0.608999 2.87743
lowerneck -21.1229 -4.69966 -12.5109
upperneck 15.7882 -5.72718 14.7596
head 9.27068 -1.90034 6.44126
lclavicle -3.14018e-14 -4.8901e-14 0
lhumerus -44.0025 -6.91387 91.6771
lradius 23.2666 -0 0
lwrist -0.0375832 0 0
lhand 6.22137 -17.551 0.0232969
lfingers 7.12502 -0 0
lthumb 31.5306 9.71262 0.0128548
rclavicle -3.14018e-14 -4.8901e-14 0
rhumerus -45.6329 19.7896 -93.6247
rradius 56.1055 -0 0
rwrist -26.8546 0 0
rhand -30.9061 -34.3288 -0.00429547
rfingers 7.12502 -0 0
rthumb -4.19246 -64.2669 -0.0041739
